<?xml version="1.0" standalone="no"?>
<!DOCTYPE svg PUBLIC "-//W3C//DTD SVG 20010904//EN"
 "http://www.w3.org/TR/2001/REC-SVG-20010904/DTD/svg10.dtd">
<svg version="1.0" xmlns="http://www.w3.org/2000/svg"
 width="562.000000pt" height="552.000000pt" viewBox="0 0 562.000000 552.000000"
 preserveAspectRatio="xMidYMid meet">

<g transform="translate(0.000000,552.000000) scale(0.100000,-0.100000)"
fill="#000000" stroke="none">
<path d="M450 5103 c-1 -84 -1 -4582 0 -4675 l0 -68 2333 0 2334 0 6 97 c9
128 9 4502 1 4621 l-7 92 -2333 0 -2334 0 0 -67z m2203 -1201 l2 -992 -970 2
-970 3 0 985 c0 542 1 988 3 993 2 4 437 6 968 5 l964 -3 3 -993z m2207 3 l0
-995 -967 0 -968 0 -3 995 -2 995 970 0 970 0 0 -995z m-2210 -1282 c0 -10 0
-457 0 -993 0 -536 0 -981 0 -987 0 -10 -200 -13 -964 -13 -910 0 -965 1 -969
18 -4 14 -2 1982 2 1990 0 1 435 2 966 2 912 0 965 -1 965 -17z m2210 -988 l0
-1005 -967 2 -968 3 -1 995 c-1 547 0 998 3 1003 2 4 438 7 969 7 l964 0 0
-1005z"/>
<path d="M1549 4679 c-185 -27 -392 -156 -504 -314 -107 -151 -149 -282 -149
-465 0 -151 21 -237 91 -374 58 -111 181 -242 288 -304 310 -181 700 -137 952
108 329 321 324 834 -10 1147 -180 168 -416 239 -668 202z"/>
<path d="M1527 2454 c-267 -48 -517 -256 -616 -513 -16 -42 -36 -114 -45 -160
-49 -257 31 -522 217 -717 124 -132 284 -218 461 -249 111 -19 170 -19 280 0
350 61 620 331 681 680 19 110 19 170 0 280 -31 175 -111 329 -238 454 -196
193 -465 275 -740 225z m27 -170 l95 -69 1 -120 0 -121 -155 -112 c-86 -62
-161 -112 -168 -112 -7 0 -57 15 -112 33 l-99 33 -39 118 -39 117 27 40 c81
116 312 279 377 265 9 -2 59 -35 112 -72z m481 34 c83 -42 143 -87 211 -161
92 -98 91 -93 46 -227 l-39 -114 -110 -34 -109 -34 -157 113 -157 113 0 121 1
120 102 73 c114 82 111 81 212 30z m-820 -601 l99 -33 61 -190 62 -189 -78
-79 -78 -80 -106 17 c-122 18 -118 15 -175 132 -46 93 -80 217 -80 289 l1 51
81 58 c45 31 89 57 98 57 8 0 60 -15 115 -33z m1153 -25 l83 -57 -5 -75 c-5
-88 -42 -211 -89 -295 l-34 -60 -116 -18 -116 -18 -66 63 c-36 35 -70 70 -75
79 -6 11 9 72 49 195 l58 179 94 32 c52 17 103 32 114 32 11 1 57 -25 103 -57z
m-395 -497 l74 -75 -14 -87 c-7 -48 -19 -91 -26 -95 -7 -5 -48 -20 -92 -34
-154 -50 -358 -43 -511 18 l-59 23 -12 75 -11 75 86 88 87 87 202 0 203 0 73
-75z"/>
<path d="M3759 2419 c-132 -19 -302 -104 -411 -207 -179 -167 -273 -434 -239
-675 58 -414 407 -705 820 -684 125 6 197 24 306 76 155 74 287 205 365 364
52 107 70 179 77 307 13 239 -74 452 -250 617 -179 167 -416 239 -668 202z"/>
</g>
</svg>
